<svg width="53" height="44" viewBox="0 0 53 44" preserveAspectRatio="none" xmlns="http://www.w3.org/2000/svg">
  <polygon fill="#D8D8D8" points="0 0 13.28 44 53 44 53 0"/>
  <g transform="translate(25, 7)" fill="#000">
    <polygon points="0 9.87 0 20.28 4.36 29.14 6.96 29.14 2.62 20.28 2.62 9.87"/>
    <polygon transform="translate(7.77, 9.63) rotate(-180) translate(-7.77, -9.63)" points="4.29 0 4.29 10.41 8.65 19.27 11.25 19.27 6.91 10.41 6.91 0"/>
    <path d="M4.34,9.71 L4.34,8.86 L0,0 L2.6,0 L6.96,8.86 L6.96,19.27 L6.91,19.27 L6.91,20.12 L11.25,28.98 L8.65,28.98 L4.29,20.12 L4.29,9.71 L4.34,9.71 Z"/>
  </g>
</svg>
